<svg width="536" height="444" viewBox="0 0 536 444" fill="none" xmlns="http://www.w3.org/2000/svg">
<path d="M1.36523 1.62134H104.77V147.935L389.659 442.673H262.338L104.77 282.994V442.673H1.36523V1.62134Z" fill="white"/>
<path d="M129.39 124.722L193.402 187.327L380.515 1.62134H253.194L129.39 124.722Z" fill="white"/>
<path d="M217.319 212.651L432.569 1.62134H534.566V29.0552L348.86 212.651L534.566 406.094V442.673H438.9L217.319 212.651Z" fill="white"/>
<path d="M1.36523 1.62134H104.77V147.935L389.659 442.673H262.338L104.77 282.994V442.673H1.36523V1.62134Z" stroke="white" stroke-width="1.40686"/>
<path d="M129.39 124.722L193.402 187.327L380.515 1.62134H253.194L129.39 124.722Z" stroke="white" stroke-width="1.40686"/>
<path d="M217.319 212.651L432.569 1.62134H534.566V29.0552L348.86 212.651L534.566 406.094V442.673H438.9L217.319 212.651Z" stroke="white" stroke-width="1.40686"/>
</svg>
